<svg width="24" height="24" viewBox="0 0 24 24" fill="none" xmlns="http://www.w3.org/2000/svg">
<g clip-path="url(#clip0_244_2877)">
<path d="M13.0603 3.28292C12.779 3.00202 12.3978 2.84424 12.0003 2.84424C11.6028 2.84424 11.2215 3.00202 10.9403 3.28292L5.28128 8.93892C4.99988 9.22031 4.8418 9.60197 4.8418 9.99992C4.8418 10.3979 4.99988 10.7795 5.28128 11.0609C5.56267 11.3423 5.94433 11.5004 6.34228 11.5004C6.74023 11.5004 7.12188 11.3423 7.40328 11.0609L10.5003 7.96492V19.4999C10.5003 19.8977 10.6583 20.2793 10.9396 20.5606C11.2209 20.8419 11.6025 20.9999 12.0003 20.9999C12.3981 20.9999 12.7796 20.8419 13.0609 20.5606C13.3422 20.2793 13.5003 19.8977 13.5003 19.4999V7.96492L16.5963 11.0609C16.7356 11.2003 16.901 11.3108 17.0831 11.3862C17.2651 11.4616 17.4602 11.5004 17.6573 11.5004C17.8543 11.5004 18.0494 11.4616 18.2315 11.3862C18.4135 11.3108 18.5789 11.2003 18.7183 11.0609C18.8576 10.9216 18.9681 10.7562 19.0435 10.5741C19.1189 10.3921 19.1578 10.197 19.1578 9.99992C19.1578 9.80287 19.1189 9.60776 19.0435 9.42571C18.9681 9.24366 18.8576 9.07825 18.7183 8.93892L13.0603 3.28292Z" fill="white"/>
</g>
<defs>
<clipPath id="clip0_244_2877">
<rect width="24" height="24" fill="white"/>
</clipPath>
</defs>
</svg>
