<svg width="24" height="24" viewBox="0 0 24 24" fill="none" xmlns="http://www.w3.org/2000/svg">
<g id="Behance icon">
<path id="Vector" d="M20.8594 0.405029H3.14065C1.62981 0.405029 0.405029 1.62981 0.405029 3.14065V20.8575C0.405029 22.3684 1.62981 23.5932 3.14065 23.5932H20.8594C22.3702 23.5932 23.595 22.3684 23.595 20.8575V3.14065C23.595 1.62981 22.3702 0.405029 20.8594 0.405029Z" fill="url(#paint0_linear_10_85)"/>
<path id="Vector_2" d="M9.86813 11.3025C9.86813 11.3025 11.8369 11.1563 11.8369 8.84815C11.8369 6.54002 10.2263 5.41315 8.18625 5.41315H1.47375V18.3131H8.18625C8.18625 18.3131 12.2831 18.4425 12.2831 14.505C12.2831 14.505 12.4631 11.3025 9.86813 11.3025ZM4.43063 7.70627H8.18063C8.18063 7.70627 9.09375 7.70627 9.09375 9.04877C9.09375 10.3913 8.5575 10.5863 7.94813 10.5863H4.4325L4.43063 7.70627ZM8.01188 16.02H4.4325V12.5738H8.1825C8.1825 12.5738 9.54188 12.555 9.54188 14.3456C9.54563 15.8363 8.55188 16.005 8.01375 16.02H8.01188ZM17.7488 8.69627C12.7875 8.69627 12.7931 13.6519 12.7931 13.6519C12.7931 13.6519 12.4519 18.5831 17.7488 18.5831C17.7488 18.5831 22.1625 18.8344 22.1625 15.1538H19.8938C19.8938 15.1538 19.9688 16.5413 17.8313 16.5413C17.8313 16.5413 15.5606 16.6931 15.5606 14.2913H22.245C22.245 14.2913 22.9706 8.69627 17.7488 8.69627ZM19.7663 12.5738H15.5288C15.5288 12.5738 15.8063 10.5863 17.7994 10.5863C19.7925 10.5863 19.7663 12.5738 19.7663 12.5738ZM14.9738 6.1744H20.295V7.76252H14.9738V6.1744Z" fill="white"/>
</g>
<defs>
<linearGradient id="paint0_linear_10_85" x1="12" y1="0.405029" x2="12" y2="23.595" gradientUnits="userSpaceOnUse">
<stop stop-color="#005CFF"/>
<stop offset="1" stop-color="#0047AD"/>
</linearGradient>
</defs>
</svg>
