<svg width="24" height="24" viewBox="0 0 24 24" fill="none" xmlns="http://www.w3.org/2000/svg">
<g id="cord icon">
<g id="Group">
<path id="Vector" d="M18.375 0H5.625C2.5184 0 0 2.5184 0 5.625V18.375C0 21.4816 2.5184 24 5.625 24H18.375C21.4816 24 24 21.4816 24 18.375V5.625C24 2.5184 21.4816 0 18.375 0Z" fill="#5865F2"/>
<g id="Clip path group">
<mask id="mask0_6_1255" style="mask-type:luminance" maskUnits="userSpaceOnUse" x="2" y="4" width="20" height="16">
<g id="skillIconsDiscord0">
<path id="Vector_2" d="M2.625 4.78125H21.375V19.3059H2.625V4.78125Z" fill="white"/>
</g>
</mask>
<g mask="url(#mask0_6_1255)">
<g id="Group_2">
<path id="Vector_3" d="M18.4976 6.07474C17.2819 5.51681 15.9991 5.11889 14.6811 4.89096C14.6691 4.88877 14.6568 4.8904 14.6458 4.89562C14.6348 4.90083 14.6257 4.90937 14.6198 4.92002C14.455 5.21309 14.2723 5.59559 14.1446 5.89615C12.7033 5.68034 11.2696 5.68034 9.85804 5.89615C9.73016 5.58884 9.54097 5.21309 9.37541 4.92002C9.36931 4.90954 9.36018 4.90115 9.34922 4.89596C9.33826 4.89078 9.32598 4.88903 9.314 4.89096C7.99589 5.11838 6.71297 5.51631 5.49754 6.07474C5.48719 6.07925 5.47843 6.08676 5.47241 6.0963C3.04166 9.7278 2.37585 13.2701 2.70247 16.7684C2.70446 16.7857 2.71323 16.8015 2.72685 16.8123C4.33054 17.9901 5.88407 18.7051 7.40872 19.179C7.42059 19.1825 7.43324 19.1824 7.44499 19.1785C7.45675 19.1746 7.46705 19.1673 7.47454 19.1575C7.83519 18.6649 8.15666 18.1456 8.43238 17.5995C8.43618 17.592 8.43834 17.5838 8.43874 17.5755C8.43914 17.5671 8.43775 17.5587 8.43468 17.5509C8.4316 17.5431 8.42691 17.536 8.42091 17.5302C8.4149 17.5243 8.40773 17.5198 8.39985 17.5169C7.88985 17.3234 7.40432 17.0876 6.93725 16.8198C6.92875 16.8148 6.92161 16.8078 6.91645 16.7993C6.9113 16.7909 6.90831 16.7814 6.90772 16.7715C6.90714 16.7616 6.90899 16.7518 6.91311 16.7428C6.91723 16.7339 6.92349 16.726 6.93135 16.7201C7.02988 16.6464 7.12672 16.5705 7.22179 16.4924C7.23012 16.4856 7.2402 16.4812 7.2509 16.4797C7.26159 16.4782 7.27248 16.4798 7.28235 16.4842C10.351 17.8852 13.673 17.8852 16.7053 16.4842C16.7153 16.4795 16.7263 16.4778 16.7371 16.4791C16.748 16.4804 16.7583 16.4848 16.7668 16.4917C16.8619 16.5702 16.959 16.6463 17.0579 16.7201C17.0658 16.726 17.0721 16.7337 17.0763 16.7427C17.0805 16.7516 17.0824 16.7614 17.0819 16.7713C17.0814 16.7812 17.0785 16.7907 17.0734 16.7992C17.0683 16.8076 17.0612 16.8147 17.0528 16.8198C16.5855 17.0927 16.0959 17.3256 15.5894 17.5162C15.5816 17.5192 15.5745 17.5239 15.5685 17.5298C15.5626 17.5358 15.558 17.5429 15.555 17.5508C15.552 17.5586 15.5507 17.567 15.5511 17.5754C15.5516 17.5838 15.5538 17.592 15.5577 17.5995C15.8381 18.1413 16.158 18.6618 16.5147 19.1567C16.522 19.1668 16.5322 19.1744 16.544 19.1784C16.5558 19.1824 16.5685 19.1826 16.5805 19.179C18.1125 18.7051 19.6661 17.9901 21.2698 16.8123C21.2767 16.8072 21.2824 16.8008 21.2866 16.7933C21.2908 16.7859 21.2934 16.7777 21.2942 16.7692C21.6852 12.7247 20.6394 9.21143 18.5219 6.09705C18.5168 6.0869 18.5081 6.07897 18.4976 6.07474ZM8.89063 14.6383C7.96672 14.6383 7.20547 13.7902 7.20547 12.7485C7.20547 11.7069 7.952 10.8587 8.89063 10.8587C9.83657 10.8587 10.5904 11.7144 10.5756 12.7485C10.5756 13.7902 9.82916 14.6383 8.89063 14.6383ZM15.1209 14.6383C14.197 14.6383 13.4358 13.7902 13.4358 12.7485C13.4358 11.7069 14.1823 10.8587 15.1209 10.8587C16.0668 10.8587 16.8207 11.7144 16.8059 12.7485C16.8059 13.7902 16.0668 14.6383 15.1209 14.6383Z" fill="white"/>
</g>
</g>
</g>
</g>
</g>
</svg>
