<svg width="25" height="25" viewBox="0 0 25 25" fill="none" xmlns="http://www.w3.org/2000/svg">
<g id="download icon">
<mask id="mask0_4_8" style="mask-type:alpha" maskUnits="userSpaceOnUse" x="0" y="0" width="25" height="25">
<rect id="Bounding box" x="0.54248" y="0.256958" width="24" height="24" fill="#D9D9D9"/>
</mask>
<g mask="url(#mask0_4_8)">
<path id="download" d="M12.5425 16.257L7.54248 11.257L8.94248 9.80696L11.5425 12.407V4.25696H13.5425V12.407L16.1425 9.80696L17.5425 11.257L12.5425 16.257ZM6.54248 20.257C5.99248 20.257 5.52165 20.0611 5.12998 19.6695C4.73831 19.2778 4.54248 18.807 4.54248 18.257V15.257H6.54248V18.257H18.5425V15.257H20.5425V18.257C20.5425 18.807 20.3466 19.2778 19.955 19.6695C19.5633 20.0611 19.0925 20.257 18.5425 20.257H6.54248Z" fill="white"/>
</g>
</g>
</svg>
