<svg width="24" height="24" viewBox="0 0 24 24" fill="none" xmlns="http://www.w3.org/2000/svg">
<g id="Tiktok icon">
<path id="Vector" d="M17.7852 8.64172C19.5359 9.74613 21.6807 10.396 23.9971 10.396V6.46244C23.5587 6.46259 23.1215 6.4222 22.6926 6.34194V9.43819C20.3763 9.43819 18.2318 8.78845 16.4807 7.68412V15.7114C16.4807 19.7271 12.7917 22.9821 8.24153 22.9821C6.54374 22.9821 4.96564 22.5292 3.65479 21.7523C5.15095 23.1024 7.23746 23.9398 9.54573 23.9398C14.0963 23.9398 17.7853 20.6848 17.7853 16.6689V8.64172H17.7852ZM19.3946 4.67328C18.4998 3.81068 17.9123 2.69593 17.7852 1.46348V0.957581H16.5489C16.8601 2.52395 17.9216 3.86216 19.3946 4.67328ZM6.53277 18.6709C6.03283 18.0926 5.76261 17.3849 5.76388 16.6574C5.76388 14.8208 7.45117 13.3316 9.53289 13.3316C9.92078 13.3315 10.3064 13.384 10.6762 13.4875V9.46599C10.244 9.41377 9.808 9.39151 9.37214 9.3997V12.5298C9.00219 12.4263 8.61638 12.3738 8.22831 12.3741C6.14668 12.3741 4.45948 13.863 4.45948 15.6999C4.45948 16.9987 5.3028 18.1231 6.53277 18.6709Z" fill="#FF004F"/>
<path id="Vector_2" d="M16.4807 7.68404C18.232 8.78837 20.3763 9.4381 22.6926 9.4381V6.34186C21.3997 6.09879 20.2551 5.5026 19.3945 4.67328C17.9215 3.86208 16.8602 2.52387 16.549 0.957581H13.3018V16.6687C13.2944 18.5003 11.61 19.9834 9.53276 19.9834C8.30879 19.9834 7.2213 19.4685 6.53264 18.6708C5.30286 18.1231 4.45945 16.9986 4.45945 15.7C4.45945 13.8633 6.14665 12.3741 8.22828 12.3741C8.62711 12.3741 9.01151 12.4289 9.3721 12.5299V9.39979C4.90178 9.48131 1.30664 12.7046 1.30664 16.6688C1.30664 18.6477 2.20189 20.4417 3.65494 21.7525C4.9658 22.5292 6.5438 22.9823 8.24168 22.9823C12.792 22.9823 16.4808 19.727 16.4808 15.7114L16.4807 7.68404Z" fill="black"/>
<path id="Vector_3" d="M22.6927 6.34179V5.50477C21.5267 5.50627 20.3838 5.21813 19.3946 4.6733C20.2702 5.51927 21.4233 6.10265 22.6927 6.34196M16.5489 0.957517C16.5193 0.807854 16.4965 0.657193 16.4807 0.505903V0H11.997V15.7113C11.9899 17.5428 10.3055 19.0258 8.22822 19.0258C7.63932 19.0266 7.05847 18.905 6.53259 18.671C7.22125 19.4686 8.30874 19.9833 9.53271 19.9833C11.6098 19.9833 13.2944 18.5004 13.3017 16.6688V0.9576L16.5489 0.957517ZM9.37233 9.39972V8.5085C8.99767 8.46333 8.61996 8.44072 8.24182 8.4408C3.69107 8.4408 0.00219727 11.696 0.00219727 15.7113C0.00219727 18.2287 1.45197 20.4473 3.65507 21.7524C2.20202 20.4416 1.30678 18.6476 1.30678 16.6687C1.30678 12.7046 4.90182 9.48124 9.37233 9.39972Z" fill="#00F2EA"/>
</g>
</svg>
