<svg width="24" height="24" viewBox="0 0 24 24" fill="none" xmlns="http://www.w3.org/2000/svg">
<g id="VS Code">
<g id="Mask group">
<mask id="mask0_6_1131" style="mask-type:alpha" maskUnits="userSpaceOnUse" x="-1" y="0" width="25" height="24">
<g id="Group">
<path id="Vector" fill-rule="evenodd" clip-rule="evenodd" d="M17.0188 23.8362C17.2097 23.9106 17.414 23.9449 17.6188 23.9371C17.8237 23.9292 18.0247 23.8793 18.2094 23.7904L23.1506 21.4127C23.405 21.2902 23.6197 21.0984 23.77 20.8592C23.9203 20.6201 24 20.3434 23.9999 20.061V3.93921C24 3.65677 23.9203 3.38004 23.7701 3.14088C23.6198 2.90173 23.4051 2.70985 23.1506 2.58734L18.2094 0.210027C17.9302 0.075684 17.6161 0.0314521 17.3107 0.0834525C17.0052 0.135453 16.7235 0.281114 16.5044 0.500277L7.04507 9.13015L2.92495 6.00246C2.73906 5.86142 2.50967 5.78986 2.27656 5.8002C2.04345 5.81054 1.8213 5.90213 1.64863 6.05909L0.327133 7.26115C0.224148 7.35482 0.141848 7.46895 0.0854965 7.59624C0.0291454 7.72354 -1.58912e-05 7.86119 -0.000121781 8.0004C-0.000227671 8.13961 0.0287241 8.27731 0.0848816 8.40469C0.141039 8.53207 0.223166 8.64633 0.326008 8.74015L3.8992 12L0.326195 15.2601C0.223409 15.3539 0.141332 15.4682 0.0852092 15.5955C0.0290866 15.7229 0.000153604 15.8606 0.000259483 15.9997C0.000365362 16.1389 0.0295078 16.2765 0.0858241 16.4038C0.14214 16.5311 0.224391 16.6452 0.32732 16.7389L1.64882 17.941C1.82146 18.0979 2.0436 18.1896 2.27671 18.1999C2.50983 18.2103 2.73922 18.1388 2.92513 17.9978L7.04526 14.8703L16.5046 23.5C16.651 23.6463 16.826 23.7608 17.0188 23.8362ZM18.0035 6.55184L10.8262 12L18.0037 17.4484L18.0035 6.55184Z" fill="white"/>
</g>
</mask>
<g mask="url(#mask0_6_1131)">
<g id="Group_2">
<path id="Vector_2" d="M23.1507 2.59128L18.2056 0.210026C17.9263 0.0755115 17.6121 0.031186 17.3065 0.0831901C17.0009 0.135194 16.719 0.280954 16.4999 0.500276L0.31156 15.2601C0.208697 15.3539 0.126551 15.4681 0.0703783 15.5955C0.014206 15.7228 -0.014754 15.8605 -0.0146481 15.9997C-0.0145422 16.1389 0.0146273 16.2766 0.0709932 16.4039C0.127359 16.5312 0.20968 16.6453 0.312685 16.7389L1.63494 17.941C1.80763 18.0981 2.02991 18.1899 2.2632 18.2003C2.49648 18.2106 2.72603 18.139 2.912 17.9978L22.4066 3.20871C23.0606 2.71259 23.9999 3.17909 23.9999 3.99996V3.94259C23.9999 3.66023 23.9203 3.3836 23.77 3.14451C23.6198 2.90543 23.4051 2.71379 23.1507 2.59128Z" fill="#0065A9"/>
<g id="Group_3" filter="url(#filter0_d_6_1131)">
<path id="Vector_3" d="M23.1507 21.409L18.2056 23.7899C17.9264 23.9244 17.6122 23.9688 17.3066 23.9169C17.001 23.8649 16.7191 23.7192 16.4999 23.5L0.31156 8.73999C0.208697 8.64619 0.126551 8.53196 0.0703783 8.40459C0.014206 8.27723 -0.014754 8.13953 -0.0146481 8.00033C-0.0145422 7.86113 0.0146273 7.72348 0.0709932 7.5962C0.127359 7.46892 0.20968 7.35481 0.312685 7.26117L1.63494 6.05911C1.80763 5.90193 2.02991 5.81019 2.2632 5.79982C2.49648 5.78944 2.72603 5.86108 2.912 6.0023L22.4066 20.7912C23.0606 21.2875 23.9999 20.821 23.9999 20.0001V20.0575C23.9999 20.3398 23.9203 20.6165 23.77 20.8556C23.6198 21.0946 23.4051 21.2865 23.1507 21.409Z" fill="#007ACC"/>
</g>
<g id="Group_4" filter="url(#filter1_d_6_1131)">
<path id="Vector_4" d="M18.2059 23.7904C17.9265 23.9246 17.6123 23.9688 17.3067 23.9168C17.0011 23.8648 16.7192 23.7191 16.5 23.4999C17.0535 24.0534 18 23.6614 18 22.8786V1.12126C18 0.338448 17.0535 -0.0536149 16.5 0.500073C16.7192 0.28092 17.0011 0.135267 17.3067 0.0832389C17.6123 0.0312111 17.9265 0.0753775 18.2059 0.209635L23.1501 2.58751C23.4047 2.70994 23.6195 2.90178 23.7699 3.14095C23.9202 3.38011 24 3.65688 24 3.93939V20.061C24 20.3435 23.9202 20.6203 23.7699 20.8594C23.6195 21.0986 23.4047 21.2905 23.1501 21.4129L18.2059 23.7904Z" fill="#1F9CF0"/>
</g>
<path id="Vector_5" opacity="0.25" fill-rule="evenodd" clip-rule="evenodd" d="M17.0043 23.8362C17.1953 23.9106 17.3995 23.9449 17.6043 23.937C17.8091 23.9292 18.0101 23.8793 18.1948 23.7904L23.136 21.4127C23.3904 21.2902 23.6052 21.0983 23.7554 20.8592C23.9057 20.62 23.9854 20.3433 23.9853 20.0608V3.93921C23.9854 3.65677 23.9057 3.38004 23.7554 3.14088C23.6052 2.90173 23.3904 2.70985 23.136 2.58734L18.1948 0.210027C17.9156 0.075684 17.6015 0.0314521 17.296 0.0834525C16.9906 0.135453 16.7089 0.281114 16.4898 0.500277L7.03045 9.13015L2.91033 6.00265C2.72444 5.8616 2.49506 5.79005 2.26194 5.80039C2.02883 5.81073 1.80668 5.90232 1.63402 6.05928L0.312515 7.26134C0.209556 7.35502 0.127279 7.46916 0.0709445 7.59645C0.01461 7.72374 -0.0145423 7.86139 -0.0146481 8.00059C-0.014754 8.13979 0.0141888 8.27748 0.0703296 8.40486C0.12647 8.53224 0.208574 8.6465 0.31139 8.74034L3.88458 12L0.311578 15.2599C0.208736 15.3537 0.126609 15.468 0.0704518 15.5954C0.0142944 15.7227 -0.0146574 15.8604 -0.0145516 15.9997C-0.0144457 16.1389 0.0147156 16.2765 0.0710667 16.4038C0.127418 16.5311 0.209718 16.6452 0.312703 16.7389L1.6342 17.941C1.80685 18.0979 2.02898 18.1896 2.2621 18.1999C2.49521 18.2103 2.72461 18.1388 2.91052 17.9978L7.03083 14.8701L16.4902 23.5C16.6366 23.6463 16.8116 23.7608 17.0043 23.8362ZM17.9891 6.55165L10.8116 12L17.9891 17.4482V6.55165Z" fill="url(#paint0_linear_6_1131)"/>
</g>
</g>
</g>
</g>
<defs>
<filter id="filter0_d_6_1131" x="-1.57727" y="4.2362" width="27.1398" height="21.2644" filterUnits="userSpaceOnUse" color-interpolation-filters="sRGB">
<feFlood flood-opacity="0" result="BackgroundImageFix"/>
<feColorMatrix in="SourceAlpha" type="matrix" values="0 0 0 0 0 0 0 0 0 0 0 0 0 0 0 0 0 0 127 0" result="hardAlpha"/>
<feOffset/>
<feGaussianBlur stdDeviation="0.781312"/>
<feColorMatrix type="matrix" values="0 0 0 0 0 0 0 0 0 0 0 0 0 0 0 0 0 0 0.25 0"/>
<feBlend mode="overlay" in2="BackgroundImageFix" result="effect1_dropShadow_6_1131"/>
<feBlend mode="normal" in="SourceGraphic" in2="effect1_dropShadow_6_1131" result="shape"/>
</filter>
<filter id="filter1_d_6_1131" x="14.9374" y="-1.50061" width="10.6252" height="27.0012" filterUnits="userSpaceOnUse" color-interpolation-filters="sRGB">
<feFlood flood-opacity="0" result="BackgroundImageFix"/>
<feColorMatrix in="SourceAlpha" type="matrix" values="0 0 0 0 0 0 0 0 0 0 0 0 0 0 0 0 0 0 127 0" result="hardAlpha"/>
<feOffset/>
<feGaussianBlur stdDeviation="0.781312"/>
<feColorMatrix type="matrix" values="0 0 0 0 0 0 0 0 0 0 0 0 0 0 0 0 0 0 0.25 0"/>
<feBlend mode="overlay" in2="BackgroundImageFix" result="effect1_dropShadow_6_1131"/>
<feBlend mode="normal" in="SourceGraphic" in2="effect1_dropShadow_6_1131" result="shape"/>
</filter>
<linearGradient id="paint0_linear_6_1131" x1="11.9853" y1="0.0619017" x2="11.9853" y2="23.9382" gradientUnits="userSpaceOnUse">
<stop stop-color="white"/>
<stop offset="1" stop-color="white" stop-opacity="0"/>
</linearGradient>
</defs>
</svg>
