<svg width="24" height="24" viewBox="0 0 24 24" fill="none" xmlns="http://www.w3.org/2000/svg">
<g id="Whatsapp icon">
<path id="Vector" d="M0.515117 11.8564C0.514555 13.8728 1.04542 15.8418 2.05485 17.5772L0.418579 23.5067L6.53253 21.9156C8.22357 22.8293 10.1183 23.308 12.0436 23.3082H12.0487C18.4047 23.3082 23.5787 18.1749 23.5814 11.8654C23.5826 8.80798 22.3841 5.93301 20.2064 3.77003C18.0292 1.60724 15.1335 0.415519 12.0482 0.414124C5.69143 0.414124 0.517835 5.54715 0.515211 11.8564" fill="url(#paint0_linear_10_96)"/>
<path id="Vector_2" d="M0.103339 11.8527C0.102683 13.9417 0.652574 15.981 1.698 17.7786L0.00305176 23.9207L6.33623 22.2726C8.08122 23.2168 10.0459 23.7147 12.0451 23.7154H12.0502C18.6343 23.7154 23.9941 18.3975 23.997 11.8621C23.9981 8.69488 22.7564 5.71656 20.501 3.47609C18.2453 1.23591 15.246 0.00130233 12.0502 0C5.46504 0 0.105963 5.31721 0.103339 11.8527ZM3.87497 17.469L3.6385 17.0965C2.64444 15.5277 2.11976 13.7149 2.12051 11.8534C2.12258 6.4213 6.57682 2.00186 12.054 2.00186C14.7064 2.00298 17.1992 3.02921 19.0741 4.89116C20.9489 6.7533 21.9805 9.22865 21.9799 11.8614C21.9774 17.2935 17.5231 21.7135 12.0502 21.7135H12.0463C10.2643 21.7126 8.51658 21.2376 6.9924 20.34L6.62968 20.1265L2.87145 21.1045L3.87497 17.469Z" fill="url(#paint1_linear_10_96)"/>
<path id="Vector_3" d="M9.06427 6.89746C8.84063 6.40416 8.60529 6.39421 8.39262 6.38556C8.21848 6.37811 8.01941 6.37867 7.82052 6.37867C7.62144 6.37867 7.298 6.453 7.0246 6.74928C6.75092 7.04583 5.97974 7.76249 5.97974 9.22007C5.97974 10.6776 7.04943 12.0864 7.19855 12.2843C7.34786 12.4817 9.26362 15.5686 12.2977 16.7562C14.8193 17.743 15.3325 17.5468 15.8798 17.4973C16.4271 17.448 17.6459 16.7808 17.8946 16.089C18.1434 15.3973 18.1434 14.8043 18.0688 14.6804C17.9942 14.557 17.7951 14.4829 17.4966 14.3348C17.1981 14.1867 15.7304 13.4698 15.4569 13.371C15.1832 13.2722 14.9842 13.2229 14.7851 13.5195C14.5861 13.8157 14.0144 14.4829 13.8402 14.6804C13.6661 14.8785 13.4919 14.9031 13.1935 14.755C12.8948 14.6063 11.9334 14.2938 10.7929 13.2846C9.90546 12.4993 9.30636 11.5296 9.13222 11.2329C8.95807 10.9367 9.11357 10.7762 9.26325 10.6285C9.39737 10.4958 9.56186 10.2826 9.71126 10.1096C9.86009 9.93663 9.90977 9.81318 10.0093 9.6156C10.1089 9.41783 10.0591 9.24481 9.98456 9.09663C9.90977 8.94844 9.3297 7.48323 9.06427 6.89746Z" fill="white"/>
</g>
<defs>
<linearGradient id="paint0_linear_10_96" x1="1158.56" y1="2309.67" x2="1158.56" y2="0.414124" gradientUnits="userSpaceOnUse">
<stop stop-color="#1FAF38"/>
<stop offset="1" stop-color="#60D669"/>
</linearGradient>
<linearGradient id="paint1_linear_10_96" x1="1199.7" y1="2392.07" x2="1199.7" y2="0" gradientUnits="userSpaceOnUse">
<stop stop-color="#F9F9F9"/>
<stop offset="1" stop-color="white"/>
</linearGradient>
</defs>
</svg>
